# xmcd
#
# Track frame offsets:
#	150
#	19690
#	36875
#	51847
#	68047
#	85427
#	98467
#	111580
#	128152
#	144890
#	160890
#	179275
#	196162
#	215485
#	228170
#	245120
#
# Disc length: 3501 seconds
#
# Revision: 1
# Processed by: cddbd v1.5.1PL0 Copyright (c) Steve Scherf et al.
# Submitted via: audiograbber 1.83.01
#
DISCID=d90dab10
DTITLE=Various Artist - karaoke female country party songs
DYEAR=1900
DGENRE=
TTITLE0=Faith Hill - Breathe
TTITLE1=Shania Twain - You're Still The One
TTITLE2=Dixie Chicks - There's Your Trouble
TTITLE3=Martina McBride - Independence Day
TTITLE4=Trisha Yearwood - How Do I Live
TTITLE5=Trisha Yearwood - XXX's and OOO's
TTITLE6=Patty Loveless - I Try To Think About Elvis
TTITLE7=Deana Carter - We Dance Anyway
TTITLE8=Kathy Mattea - Clown In Your Rodeo
TTITLE9=Tanya Tucker - Down To My Last Teardrop
TTITLE10=Wynonna - No One Else On Earth
TTITLE11=Reba McEntire - How Was I To Know
TTITLE12=Lorrie Morgan - I Guess You Had To Be There
TTITLE13=Faith Hill - Wild One
TTITLE14=Dixie Chicks - You Were Mine
TTITLE15=Shania Twain - Don't Be Stupid
EXTD=
EXTT0=
EXTT1=
EXTT2=
EXTT3=
EXTT4=
EXTT5=
EXTT6=
EXTT7=
EXTT8=
EXTT9=
EXTT10=
EXTT11=
EXTT12=
EXTT13=
EXTT14=
EXTT15=
PLAYORDER=
